solid
 facet normal  0.000000e+00  0.000000e+00  1.000000e+00
   outer loop
     vertex -1.470588e-02 -1.500000e-03  0.000000e+00
     vertex  0.000000e+00 -1.500000e-03  0.000000e+00
     vertex  0.000000e+00  1.500000e-03  0.000000e+00
   endloop
 endfacet
 facet normal  0.000000e+00  0.000000e+00  1.000000e+00
   outer loop
     vertex -4.411765e-02 -1.500000e-03  0.000000e+00
     vertex -2.941176e-02 -1.500000e-03  0.000000e+00
     vertex -2.941176e-02  1.500000e-03  0.000000e+00
   endloop
 endfacet
 facet normal  0.000000e+00  0.000000e+00  1.000000e+00
   outer loop
     vertex -2.941176e-02 -1.500000e-03  0.000000e+00
     vertex -1.470588e-02 -1.500000e-03  0.000000e+00
     vertex -1.470588e-02  1.500000e-03  0.000000e+00
   endloop
 endfacet
 facet normal  0.000000e+00  0.000000e+00  1.000000e+00
   outer loop
     vertex -1.470588e-02  1.500000e-03  0.000000e+00
     vertex -2.941176e-02  1.500000e-03  0.000000e+00
     vertex -2.941176e-02 -1.500000e-03  0.000000e+00
   endloop
 endfacet
 facet normal  0.000000e+00  0.000000e+00  1.000000e+00
   outer loop
     vertex  0.000000e+00  1.500000e-03  0.000000e+00
     vertex -1.470588e-02  1.500000e-03  0.000000e+00
     vertex -1.470588e-02 -1.500000e-03  0.000000e+00
   endloop
 endfacet
 facet normal  0.000000e+00  0.000000e+00  1.000000e+00
   outer loop
     vertex -7.352941e-02 -1.500000e-03  0.000000e+00
     vertex -5.882353e-02 -1.500000e-03  0.000000e+00
     vertex -5.882353e-02  1.500000e-03  0.000000e+00
   endloop
 endfacet
 facet normal  0.000000e+00  0.000000e+00  1.000000e+00
   outer loop
     vertex -1.029412e-01 -1.500000e-03  0.000000e+00
     vertex -8.823529e-02  1.500000e-03  0.000000e+00
     vertex -1.029412e-01  1.500000e-03  0.000000e+00
   endloop
 endfacet
 facet normal  0.000000e+00  0.000000e+00  1.000000e+00
   outer loop
     vertex -5.882353e-02 -1.500000e-03  0.000000e+00
     vertex -4.411765e-02 -1.500000e-03  0.000000e+00
     vertex -4.411765e-02  1.500000e-03  0.000000e+00
   endloop
 endfacet
 facet normal  0.000000e+00  0.000000e+00  1.000000e+00
   outer loop
     vertex -4.411765e-02  1.500000e-03  0.000000e+00
     vertex -5.882353e-02  1.500000e-03  0.000000e+00
     vertex -5.882353e-02 -1.500000e-03  0.000000e+00
   endloop
 endfacet
 facet normal  0.000000e+00  0.000000e+00  1.000000e+00
   outer loop
     vertex -7.352941e-02  1.500000e-03  0.000000e+00
     vertex -8.823529e-02  1.500000e-03  0.000000e+00
     vertex -8.823529e-02 -1.500000e-03  0.000000e+00
   endloop
 endfacet
 facet normal  0.000000e+00  0.000000e+00  1.000000e+00
   outer loop
     vertex -1.029412e-01 -1.500000e-03  0.000000e+00
     vertex -8.823529e-02 -1.500000e-03  0.000000e+00
     vertex -8.823529e-02  1.500000e-03  0.000000e+00
   endloop
 endfacet
 facet normal  0.000000e+00  0.000000e+00  1.000000e+00
   outer loop
     vertex -8.823529e-02 -1.500000e-03  0.000000e+00
     vertex -7.352941e-02 -1.500000e-03  0.000000e+00
     vertex -7.352941e-02  1.500000e-03  0.000000e+00
   endloop
 endfacet
 facet normal  0.000000e+00  0.000000e+00  1.000000e+00
   outer loop
     vertex -5.882353e-02  1.500000e-03  0.000000e+00
     vertex -7.352941e-02  1.500000e-03  0.000000e+00
     vertex -7.352941e-02 -1.500000e-03  0.000000e+00
   endloop
 endfacet
 facet normal  0.000000e+00  0.000000e+00  1.000000e+00
   outer loop
     vertex -2.941176e-02  1.500000e-03  0.000000e+00
     vertex -4.411765e-02  1.500000e-03  0.000000e+00
     vertex -4.411765e-02 -1.500000e-03  0.000000e+00
   endloop
 endfacet
 facet normal  0.000000e+00  0.000000e+00  1.000000e+00
   outer loop
     vertex -1.470588e-01 -1.500000e-03  0.000000e+00
     vertex -1.323529e-01 -1.500000e-03  0.000000e+00
     vertex -1.323529e-01  1.500000e-03  0.000000e+00
   endloop
 endfacet
 facet normal  0.000000e+00  0.000000e+00  1.000000e+00
   outer loop
     vertex -1.323529e-01 -1.500000e-03  0.000000e+00
     vertex -1.176471e-01 -1.500000e-03  0.000000e+00
     vertex -1.176471e-01  1.500000e-03  0.000000e+00
   endloop
 endfacet
 facet normal  0.000000e+00  0.000000e+00  1.000000e+00
   outer loop
     vertex -1.176471e-01  1.500000e-03  0.000000e+00
     vertex -1.323529e-01  1.500000e-03  0.000000e+00
     vertex -1.323529e-01 -1.500000e-03  0.000000e+00
   endloop
 endfacet
 facet normal  0.000000e+00  0.000000e+00  1.000000e+00
   outer loop
     vertex -1.764706e-01 -1.500000e-03  0.000000e+00
     vertex -1.617647e-01 -1.500000e-03  0.000000e+00
     vertex -1.617647e-01  1.500000e-03  0.000000e+00
   endloop
 endfacet
 facet normal  0.000000e+00  0.000000e+00  1.000000e+00
   outer loop
     vertex -1.617647e-01 -1.500000e-03  0.000000e+00
     vertex -1.470588e-01 -1.500000e-03  0.000000e+00
     vertex -1.470588e-01  1.500000e-03  0.000000e+00
   endloop
 endfacet
 facet normal  0.000000e+00  0.000000e+00  1.000000e+00
   outer loop
     vertex -1.470588e-01  1.500000e-03  0.000000e+00
     vertex -1.617647e-01  1.500000e-03  0.000000e+00
     vertex -1.617647e-01 -1.500000e-03  0.000000e+00
   endloop
 endfacet
 facet normal  0.000000e+00  0.000000e+00  1.000000e+00
   outer loop
     vertex -1.323529e-01  1.500000e-03  0.000000e+00
     vertex -1.470588e-01  1.500000e-03  0.000000e+00
     vertex -1.470588e-01 -1.500000e-03  0.000000e+00
   endloop
 endfacet
 facet normal  0.000000e+00  0.000000e+00  1.000000e+00
   outer loop
     vertex -1.764706e-01  1.500000e-03  0.000000e+00
     vertex -1.911765e-01  1.500000e-03  0.000000e+00
     vertex -1.911765e-01 -1.500000e-03  0.000000e+00
   endloop
 endfacet
 facet normal  0.000000e+00  0.000000e+00  1.000000e+00
   outer loop
     vertex -2.058824e-01 -1.500000e-03  0.000000e+00
     vertex -1.911765e-01 -1.500000e-03  0.000000e+00
     vertex -1.911765e-01  1.500000e-03  0.000000e+00
   endloop
 endfacet
 facet normal  0.000000e+00  0.000000e+00  1.000000e+00
   outer loop
     vertex -1.911765e-01 -1.500000e-03  0.000000e+00
     vertex -1.764706e-01 -1.500000e-03  0.000000e+00
     vertex -1.764706e-01  1.500000e-03  0.000000e+00
   endloop
 endfacet
 facet normal  0.000000e+00  0.000000e+00  1.000000e+00
   outer loop
     vertex -2.500000e-01 -1.500000e-03  0.000000e+00
     vertex -2.352941e-01 -1.500000e-03  0.000000e+00
     vertex -2.352941e-01  1.500000e-03  0.000000e+00
   endloop
 endfacet
 facet normal  0.000000e+00  0.000000e+00  1.000000e+00
   outer loop
     vertex -2.352941e-01 -1.500000e-03  0.000000e+00
     vertex -2.205882e-01 -1.500000e-03  0.000000e+00
     vertex -2.205882e-01  1.500000e-03  0.000000e+00
   endloop
 endfacet
 facet normal  0.000000e+00  0.000000e+00  1.000000e+00
   outer loop
     vertex -2.205882e-01  1.500000e-03  0.000000e+00
     vertex -2.352941e-01  1.500000e-03  0.000000e+00
     vertex -2.352941e-01 -1.500000e-03  0.000000e+00
   endloop
 endfacet
 facet normal  0.000000e+00  0.000000e+00  1.000000e+00
   outer loop
     vertex -2.058824e-01  1.500000e-03  0.000000e+00
     vertex -2.205882e-01  1.500000e-03  0.000000e+00
     vertex -2.205882e-01 -1.500000e-03  0.000000e+00
   endloop
 endfacet
 facet normal  0.000000e+00  0.000000e+00  1.000000e+00
   outer loop
     vertex -2.205882e-01 -1.500000e-03  0.000000e+00
     vertex -2.058824e-01 -1.500000e-03  0.000000e+00
     vertex -2.058824e-01  1.500000e-03  0.000000e+00
   endloop
 endfacet
 facet normal  0.000000e+00  0.000000e+00  1.000000e+00
   outer loop
     vertex -1.617647e-01  1.500000e-03  0.000000e+00
     vertex -1.764706e-01  1.500000e-03  0.000000e+00
     vertex -1.764706e-01 -1.500000e-03  0.000000e+00
   endloop
 endfacet
 facet normal  0.000000e+00  0.000000e+00  1.000000e+00
   outer loop
     vertex -2.058824e-01 -1.500000e-03  0.000000e+00
     vertex -1.911765e-01  1.500000e-03  0.000000e+00
     vertex -2.058824e-01  1.500000e-03  0.000000e+00
   endloop
 endfacet
 facet normal  0.000000e+00  0.000000e+00  1.000000e+00
   outer loop
     vertex -1.029412e-01  1.500000e-03  0.000000e+00
     vertex -1.176471e-01  1.500000e-03  0.000000e+00
     vertex -1.176471e-01 -1.500000e-03  0.000000e+00
   endloop
 endfacet
 facet normal  0.000000e+00  0.000000e+00  1.000000e+00
   outer loop
     vertex -1.176471e-01 -1.500000e-03  0.000000e+00
     vertex -1.029412e-01 -1.500000e-03  0.000000e+00
     vertex -1.029412e-01  1.500000e-03  0.000000e+00
   endloop
 endfacet
 facet normal  0.000000e+00  0.000000e+00  1.000000e+00
   outer loop
     vertex -2.794118e-01 -1.500000e-03  0.000000e+00
     vertex -2.647059e-01 -1.500000e-03  0.000000e+00
     vertex -2.647059e-01  1.500000e-03  0.000000e+00
   endloop
 endfacet
 facet normal  0.000000e+00  0.000000e+00  1.000000e+00
   outer loop
     vertex -3.088235e-01 -1.500000e-03  0.000000e+00
     vertex -2.941176e-01  1.500000e-03  0.000000e+00
     vertex -3.088235e-01  1.500000e-03  0.000000e+00
   endloop
 endfacet
 facet normal  0.000000e+00  0.000000e+00  1.000000e+00
   outer loop
     vertex -2.647059e-01 -1.500000e-03  0.000000e+00
     vertex -2.500000e-01 -1.500000e-03  0.000000e+00
     vertex -2.500000e-01  1.500000e-03  0.000000e+00
   endloop
 endfacet
 facet normal  0.000000e+00  0.000000e+00  1.000000e+00
   outer loop
     vertex -2.500000e-01  1.500000e-03  0.000000e+00
     vertex -2.647059e-01  1.500000e-03  0.000000e+00
     vertex -2.647059e-01 -1.500000e-03  0.000000e+00
   endloop
 endfacet
 facet normal  0.000000e+00  0.000000e+00  1.000000e+00
   outer loop
     vertex -2.794118e-01  1.500000e-03  0.000000e+00
     vertex -2.941176e-01  1.500000e-03  0.000000e+00
     vertex -2.941176e-01 -1.500000e-03  0.000000e+00
   endloop
 endfacet
 facet normal  0.000000e+00  0.000000e+00  1.000000e+00
   outer loop
     vertex -3.088235e-01 -1.500000e-03  0.000000e+00
     vertex -2.941176e-01 -1.500000e-03  0.000000e+00
     vertex -2.941176e-01  1.500000e-03  0.000000e+00
   endloop
 endfacet
 facet normal  0.000000e+00  0.000000e+00  1.000000e+00
   outer loop
     vertex -2.941176e-01 -1.500000e-03  0.000000e+00
     vertex -2.794118e-01 -1.500000e-03  0.000000e+00
     vertex -2.794118e-01  1.500000e-03  0.000000e+00
   endloop
 endfacet
 facet normal  0.000000e+00  0.000000e+00  1.000000e+00
   outer loop
     vertex -2.647059e-01  1.500000e-03  0.000000e+00
     vertex -2.794118e-01  1.500000e-03  0.000000e+00
     vertex -2.794118e-01 -1.500000e-03  0.000000e+00
   endloop
 endfacet
 facet normal  0.000000e+00 -0.000000e+00  1.000000e+00
   outer loop
     vertex -3.382353e-01 -1.500000e-03  0.000000e+00
     vertex -3.382353e-01  1.500000e-03  0.000000e+00
     vertex -3.529412e-01  1.500000e-03  0.000000e+00
   endloop
 endfacet
 facet normal  0.000000e+00 -0.000000e+00  1.000000e+00
   outer loop
     vertex -3.235294e-01 -1.500000e-03  0.000000e+00
     vertex -3.235294e-01  1.500000e-03  0.000000e+00
     vertex -3.382353e-01  1.500000e-03  0.000000e+00
   endloop
 endfacet
 facet normal  0.000000e+00  0.000000e+00  1.000000e+00
   outer loop
     vertex -3.382353e-01  1.500000e-03  0.000000e+00
     vertex -3.382353e-01 -1.500000e-03  0.000000e+00
     vertex -3.235294e-01 -1.500000e-03  0.000000e+00
   endloop
 endfacet
 facet normal  0.000000e+00 -0.000000e+00  1.000000e+00
   outer loop
     vertex -3.676471e-01 -1.500000e-03  0.000000e+00
     vertex -3.676471e-01  1.500000e-03  0.000000e+00
     vertex -3.823529e-01  1.500000e-03  0.000000e+00
   endloop
 endfacet
 facet normal  0.000000e+00  0.000000e+00  1.000000e+00
   outer loop
     vertex -3.823529e-01  1.500000e-03  0.000000e+00
     vertex -3.823529e-01 -1.500000e-03  0.000000e+00
     vertex -3.676471e-01 -1.500000e-03  0.000000e+00
   endloop
 endfacet
 facet normal  0.000000e+00 -0.000000e+00  1.000000e+00
   outer loop
     vertex -3.529412e-01 -1.500000e-03  0.000000e+00
     vertex -3.529412e-01  1.500000e-03  0.000000e+00
     vertex -3.676471e-01  1.500000e-03  0.000000e+00
   endloop
 endfacet
 facet normal  0.000000e+00  0.000000e+00  1.000000e+00
   outer loop
     vertex -3.676471e-01  1.500000e-03  0.000000e+00
     vertex -3.676471e-01 -1.500000e-03  0.000000e+00
     vertex -3.529412e-01 -1.500000e-03  0.000000e+00
   endloop
 endfacet
 facet normal  0.000000e+00  0.000000e+00  1.000000e+00
   outer loop
     vertex -3.529412e-01  1.500000e-03  0.000000e+00
     vertex -3.529412e-01 -1.500000e-03  0.000000e+00
     vertex -3.382353e-01 -1.500000e-03  0.000000e+00
   endloop
 endfacet
 facet normal  0.000000e+00  0.000000e+00  1.000000e+00
   outer loop
     vertex -3.235294e-01  1.500000e-03  0.000000e+00
     vertex -3.235294e-01 -1.500000e-03  0.000000e+00
     vertex -3.088235e-01 -1.500000e-03  0.000000e+00
   endloop
 endfacet
 facet normal  0.000000e+00 -0.000000e+00  1.000000e+00
   outer loop
     vertex -3.088235e-01 -1.500000e-03  0.000000e+00
     vertex -3.088235e-01  1.500000e-03  0.000000e+00
     vertex -3.235294e-01  1.500000e-03  0.000000e+00
   endloop
 endfacet
 facet normal  0.000000e+00  0.000000e+00  1.000000e+00
   outer loop
     vertex -3.970588e-01  1.500000e-03  0.000000e+00
     vertex -3.970588e-01 -1.500000e-03  0.000000e+00
     vertex -3.823529e-01 -1.500000e-03  0.000000e+00
   endloop
 endfacet
 facet normal  0.000000e+00  0.000000e+00  1.000000e+00
   outer loop
     vertex -4.117647e-01 -1.500000e-03  0.000000e+00
     vertex -3.970588e-01 -1.500000e-03  0.000000e+00
     vertex -3.970588e-01  1.500000e-03  0.000000e+00
   endloop
 endfacet
 facet normal  0.000000e+00 -0.000000e+00  1.000000e+00
   outer loop
     vertex -3.823529e-01 -1.500000e-03  0.000000e+00
     vertex -3.823529e-01  1.500000e-03  0.000000e+00
     vertex -3.970588e-01  1.500000e-03  0.000000e+00
   endloop
 endfacet
 facet normal  0.000000e+00  0.000000e+00  1.000000e+00
   outer loop
     vertex -4.558824e-01 -1.500000e-03  0.000000e+00
     vertex -4.411765e-01 -1.500000e-03  0.000000e+00
     vertex -4.411765e-01  1.500000e-03  0.000000e+00
   endloop
 endfacet
 facet normal  0.000000e+00  0.000000e+00  1.000000e+00
   outer loop
     vertex -4.411765e-01 -1.500000e-03  0.000000e+00
     vertex -4.264706e-01 -1.500000e-03  0.000000e+00
     vertex -4.264706e-01  1.500000e-03  0.000000e+00
   endloop
 endfacet
 facet normal  0.000000e+00  0.000000e+00  1.000000e+00
   outer loop
     vertex -4.264706e-01  1.500000e-03  0.000000e+00
     vertex -4.411765e-01  1.500000e-03  0.000000e+00
     vertex -4.411765e-01 -1.500000e-03  0.000000e+00
   endloop
 endfacet
 facet normal  0.000000e+00  0.000000e+00  1.000000e+00
   outer loop
     vertex -4.117647e-01  1.500000e-03  0.000000e+00
     vertex -4.264706e-01  1.500000e-03  0.000000e+00
     vertex -4.264706e-01 -1.500000e-03  0.000000e+00
   endloop
 endfacet
 facet normal  0.000000e+00  0.000000e+00  1.000000e+00
   outer loop
     vertex -4.264706e-01 -1.500000e-03  0.000000e+00
     vertex -4.117647e-01 -1.500000e-03  0.000000e+00
     vertex -4.117647e-01  1.500000e-03  0.000000e+00
   endloop
 endfacet
 facet normal  0.000000e+00  0.000000e+00  1.000000e+00
   outer loop
     vertex -4.852941e-01 -1.500000e-03  0.000000e+00
     vertex -4.705882e-01 -1.500000e-03  0.000000e+00
     vertex -4.705882e-01  1.500000e-03  0.000000e+00
   endloop
 endfacet
 facet normal  0.000000e+00  0.000000e+00  1.000000e+00
   outer loop
     vertex -4.705882e-01  1.500000e-03  0.000000e+00
     vertex -4.852941e-01  1.500000e-03  0.000000e+00
     vertex -4.852941e-01 -1.500000e-03  0.000000e+00
   endloop
 endfacet
 facet normal  0.000000e+00  0.000000e+00  1.000000e+00
   outer loop
     vertex -4.705882e-01 -1.500000e-03  0.000000e+00
     vertex -4.558824e-01 -1.500000e-03  0.000000e+00
     vertex -4.558824e-01  1.500000e-03  0.000000e+00
   endloop
 endfacet
 facet normal  0.000000e+00  0.000000e+00  1.000000e+00
   outer loop
     vertex -4.558824e-01  1.500000e-03  0.000000e+00
     vertex -4.705882e-01  1.500000e-03  0.000000e+00
     vertex -4.705882e-01 -1.500000e-03  0.000000e+00
   endloop
 endfacet
 facet normal  0.000000e+00 -0.000000e+00  1.000000e+00
   outer loop
     vertex -4.852941e-01 -1.500000e-03  0.000000e+00
     vertex -4.852941e-01  1.500000e-03  0.000000e+00
     vertex -5.000000e-01 -1.500000e-03  0.000000e+00
   endloop
 endfacet
 facet normal -0.000000e+00  0.000000e+00  1.000000e+00
   outer loop
     vertex -5.000000e-01  1.500000e-03  0.000000e+00
     vertex -5.000000e-01 -1.500000e-03  0.000000e+00
     vertex -4.852941e-01  1.500000e-03  0.000000e+00
   endloop
 endfacet
 facet normal  0.000000e+00  0.000000e+00  1.000000e+00
   outer loop
     vertex -4.411765e-01  1.500000e-03  0.000000e+00
     vertex -4.558824e-01  1.500000e-03  0.000000e+00
     vertex -4.558824e-01 -1.500000e-03  0.000000e+00
   endloop
 endfacet
 facet normal  0.000000e+00  0.000000e+00  1.000000e+00
   outer loop
     vertex -4.117647e-01 -1.500000e-03  0.000000e+00
     vertex -3.970588e-01  1.500000e-03  0.000000e+00
     vertex -4.117647e-01  1.500000e-03  0.000000e+00
   endloop
 endfacet
 facet normal  0.000000e+00  0.000000e+00  1.000000e+00
   outer loop
     vertex -2.352941e-01  1.500000e-03  0.000000e+00
     vertex -2.500000e-01  1.500000e-03  0.000000e+00
     vertex -2.500000e-01 -1.500000e-03  0.000000e+00
   endloop
 endfacet
 facet normal  0.000000e+00  0.000000e+00  1.000000e+00
   outer loop
     vertex  4.852941e-01 -1.500000e-03  0.000000e+00
     vertex  5.000000e-01 -1.500000e-03  0.000000e+00
     vertex  5.000000e-01  1.500000e-03  0.000000e+00
   endloop
 endfacet
 facet normal  0.000000e+00 -0.000000e+00  1.000000e+00
   outer loop
     vertex  4.705882e-01 -1.500000e-03  0.000000e+00
     vertex  4.705882e-01  1.500000e-03  0.000000e+00
     vertex  4.558824e-01  1.500000e-03  0.000000e+00
   endloop
 endfacet
 facet normal  0.000000e+00 -0.000000e+00  1.000000e+00
   outer loop
     vertex  4.852941e-01 -1.500000e-03  0.000000e+00
     vertex  4.852941e-01  1.500000e-03  0.000000e+00
     vertex  4.705882e-01  1.500000e-03  0.000000e+00
   endloop
 endfacet
 facet normal  0.000000e+00  0.000000e+00  1.000000e+00
   outer loop
     vertex  4.705882e-01  1.500000e-03  0.000000e+00
     vertex  4.705882e-01 -1.500000e-03  0.000000e+00
     vertex  4.852941e-01 -1.500000e-03  0.000000e+00
   endloop
 endfacet
 facet normal  0.000000e+00  0.000000e+00  1.000000e+00
   outer loop
     vertex  5.000000e-01  1.500000e-03  0.000000e+00
     vertex  4.852941e-01  1.500000e-03  0.000000e+00
     vertex  4.852941e-01 -1.500000e-03  0.000000e+00
   endloop
 endfacet
 facet normal  0.000000e+00 -0.000000e+00  1.000000e+00
   outer loop
     vertex  4.411765e-01 -1.500000e-03  0.000000e+00
     vertex  4.411765e-01  1.500000e-03  0.000000e+00
     vertex  4.264706e-01  1.500000e-03  0.000000e+00
   endloop
 endfacet
 facet normal  0.000000e+00  0.000000e+00  1.000000e+00
   outer loop
     vertex  3.970588e-01 -1.500000e-03  0.000000e+00
     vertex  4.117647e-01 -1.500000e-03  0.000000e+00
     vertex  3.970588e-01  1.500000e-03  0.000000e+00
   endloop
 endfacet
 facet normal  0.000000e+00 -0.000000e+00  1.000000e+00
   outer loop
     vertex  4.558824e-01 -1.500000e-03  0.000000e+00
     vertex  4.558824e-01  1.500000e-03  0.000000e+00
     vertex  4.411765e-01  1.500000e-03  0.000000e+00
   endloop
 endfacet
 facet normal  0.000000e+00  0.000000e+00  1.000000e+00
   outer loop
     vertex  4.411765e-01  1.500000e-03  0.000000e+00
     vertex  4.411765e-01 -1.500000e-03  0.000000e+00
     vertex  4.558824e-01 -1.500000e-03  0.000000e+00
   endloop
 endfacet
 facet normal  0.000000e+00  0.000000e+00  1.000000e+00
   outer loop
     vertex  4.117647e-01  1.500000e-03  0.000000e+00
     vertex  4.117647e-01 -1.500000e-03  0.000000e+00
     vertex  4.264706e-01 -1.500000e-03  0.000000e+00
   endloop
 endfacet
 facet normal  0.000000e+00  0.000000e+00  1.000000e+00
   outer loop
     vertex  4.117647e-01  1.500000e-03  0.000000e+00
     vertex  3.970588e-01  1.500000e-03  0.000000e+00
     vertex  4.117647e-01 -1.500000e-03  0.000000e+00
   endloop
 endfacet
 facet normal  0.000000e+00 -0.000000e+00  1.000000e+00
   outer loop
     vertex  4.264706e-01 -1.500000e-03  0.000000e+00
     vertex  4.264706e-01  1.500000e-03  0.000000e+00
     vertex  4.117647e-01  1.500000e-03  0.000000e+00
   endloop
 endfacet
 facet normal  0.000000e+00  0.000000e+00  1.000000e+00
   outer loop
     vertex  4.264706e-01  1.500000e-03  0.000000e+00
     vertex  4.264706e-01 -1.500000e-03  0.000000e+00
     vertex  4.411765e-01 -1.500000e-03  0.000000e+00
   endloop
 endfacet
 facet normal  0.000000e+00  0.000000e+00  1.000000e+00
   outer loop
     vertex  4.558824e-01  1.500000e-03  0.000000e+00
     vertex  4.558824e-01 -1.500000e-03  0.000000e+00
     vertex  4.705882e-01 -1.500000e-03  0.000000e+00
   endloop
 endfacet
 facet normal  0.000000e+00  0.000000e+00  1.000000e+00
   outer loop
     vertex  3.529412e-01 -1.500000e-03  0.000000e+00
     vertex  3.676471e-01 -1.500000e-03  0.000000e+00
     vertex  3.676471e-01  1.500000e-03  0.000000e+00
   endloop
 endfacet
 facet normal  0.000000e+00  0.000000e+00  1.000000e+00
   outer loop
     vertex  3.676471e-01 -1.500000e-03  0.000000e+00
     vertex  3.823529e-01 -1.500000e-03  0.000000e+00
     vertex  3.823529e-01  1.500000e-03  0.000000e+00
   endloop
 endfacet
 facet normal  0.000000e+00  0.000000e+00  1.000000e+00
   outer loop
     vertex  3.823529e-01  1.500000e-03  0.000000e+00
     vertex  3.676471e-01  1.500000e-03  0.000000e+00
     vertex  3.676471e-01 -1.500000e-03  0.000000e+00
   endloop
 endfacet
 facet normal  0.000000e+00  0.000000e+00  1.000000e+00
   outer loop
     vertex  3.235294e-01 -1.500000e-03  0.000000e+00
     vertex  3.382353e-01 -1.500000e-03  0.000000e+00
     vertex  3.382353e-01  1.500000e-03  0.000000e+00
   endloop
 endfacet
 facet normal  0.000000e+00  0.000000e+00  1.000000e+00
   outer loop
     vertex  3.382353e-01 -1.500000e-03  0.000000e+00
     vertex  3.529412e-01 -1.500000e-03  0.000000e+00
     vertex  3.529412e-01  1.500000e-03  0.000000e+00
   endloop
 endfacet
 facet normal  0.000000e+00  0.000000e+00  1.000000e+00
   outer loop
     vertex  3.529412e-01  1.500000e-03  0.000000e+00
     vertex  3.382353e-01  1.500000e-03  0.000000e+00
     vertex  3.382353e-01 -1.500000e-03  0.000000e+00
   endloop
 endfacet
 facet normal  0.000000e+00  0.000000e+00  1.000000e+00
   outer loop
     vertex  3.676471e-01  1.500000e-03  0.000000e+00
     vertex  3.529412e-01  1.500000e-03  0.000000e+00
     vertex  3.529412e-01 -1.500000e-03  0.000000e+00
   endloop
 endfacet
 facet normal  0.000000e+00  0.000000e+00  1.000000e+00
   outer loop
     vertex  3.235294e-01  1.500000e-03  0.000000e+00
     vertex  3.088235e-01  1.500000e-03  0.000000e+00
     vertex  3.088235e-01 -1.500000e-03  0.000000e+00
   endloop
 endfacet
 facet normal  0.000000e+00  0.000000e+00  1.000000e+00
   outer loop
     vertex  3.088235e-01  1.500000e-03  0.000000e+00
     vertex  2.941176e-01  1.500000e-03  0.000000e+00
     vertex  3.088235e-01 -1.500000e-03  0.000000e+00
   endloop
 endfacet
 facet normal  0.000000e+00  0.000000e+00  1.000000e+00
   outer loop
     vertex  3.088235e-01 -1.500000e-03  0.000000e+00
     vertex  3.235294e-01 -1.500000e-03  0.000000e+00
     vertex  3.235294e-01  1.500000e-03  0.000000e+00
   endloop
 endfacet
 facet normal  0.000000e+00 -0.000000e+00  1.000000e+00
   outer loop
     vertex  2.647059e-01 -1.500000e-03  0.000000e+00
     vertex  2.647059e-01  1.500000e-03  0.000000e+00
     vertex  2.500000e-01  1.500000e-03  0.000000e+00
   endloop
 endfacet
 facet normal  0.000000e+00 -0.000000e+00  1.000000e+00
   outer loop
     vertex  2.794118e-01 -1.500000e-03  0.000000e+00
     vertex  2.794118e-01  1.500000e-03  0.000000e+00
     vertex  2.647059e-01  1.500000e-03  0.000000e+00
   endloop
 endfacet
 facet normal  0.000000e+00  0.000000e+00  1.000000e+00
   outer loop
     vertex  2.647059e-01  1.500000e-03  0.000000e+00
     vertex  2.647059e-01 -1.500000e-03  0.000000e+00
     vertex  2.794118e-01 -1.500000e-03  0.000000e+00
   endloop
 endfacet
 facet normal  0.000000e+00  0.000000e+00  1.000000e+00
   outer loop
     vertex  2.794118e-01  1.500000e-03  0.000000e+00
     vertex  2.794118e-01 -1.500000e-03  0.000000e+00
     vertex  2.941176e-01 -1.500000e-03  0.000000e+00
   endloop
 endfacet
 facet normal  0.000000e+00 -0.000000e+00  1.000000e+00
   outer loop
     vertex  2.941176e-01 -1.500000e-03  0.000000e+00
     vertex  2.941176e-01  1.500000e-03  0.000000e+00
     vertex  2.794118e-01  1.500000e-03  0.000000e+00
   endloop
 endfacet
 facet normal  0.000000e+00  0.000000e+00  1.000000e+00
   outer loop
     vertex  3.382353e-01  1.500000e-03  0.000000e+00
     vertex  3.235294e-01  1.500000e-03  0.000000e+00
     vertex  3.235294e-01 -1.500000e-03  0.000000e+00
   endloop
 endfacet
 facet normal  0.000000e+00  0.000000e+00  1.000000e+00
   outer loop
     vertex  2.941176e-01 -1.500000e-03  0.000000e+00
     vertex  3.088235e-01 -1.500000e-03  0.000000e+00
     vertex  2.941176e-01  1.500000e-03  0.000000e+00
   endloop
 endfacet
 facet normal  0.000000e+00  0.000000e+00  1.000000e+00
   outer loop
     vertex  3.970588e-01  1.500000e-03  0.000000e+00
     vertex  3.823529e-01  1.500000e-03  0.000000e+00
     vertex  3.823529e-01 -1.500000e-03  0.000000e+00
   endloop
 endfacet
 facet normal  0.000000e+00  0.000000e+00  1.000000e+00
   outer loop
     vertex  3.823529e-01 -1.500000e-03  0.000000e+00
     vertex  3.970588e-01 -1.500000e-03  0.000000e+00
     vertex  3.970588e-01  1.500000e-03  0.000000e+00
   endloop
 endfacet
 facet normal  0.000000e+00  0.000000e+00  1.000000e+00
   outer loop
     vertex  2.205882e-01 -1.500000e-03  0.000000e+00
     vertex  2.352941e-01 -1.500000e-03  0.000000e+00
     vertex  2.352941e-01  1.500000e-03  0.000000e+00
   endloop
 endfacet
 facet normal  0.000000e+00  0.000000e+00  1.000000e+00
   outer loop
     vertex  1.911765e-01 -1.500000e-03  0.000000e+00
     vertex  2.058824e-01  1.500000e-03  0.000000e+00
     vertex  1.911765e-01  1.500000e-03  0.000000e+00
   endloop
 endfacet
 facet normal  0.000000e+00  0.000000e+00  1.000000e+00
   outer loop
     vertex  2.352941e-01 -1.500000e-03  0.000000e+00
     vertex  2.500000e-01 -1.500000e-03  0.000000e+00
     vertex  2.500000e-01  1.500000e-03  0.000000e+00
   endloop
 endfacet
 facet normal  0.000000e+00  0.000000e+00  1.000000e+00
   outer loop
     vertex  2.500000e-01  1.500000e-03  0.000000e+00
     vertex  2.352941e-01  1.500000e-03  0.000000e+00
     vertex  2.352941e-01 -1.500000e-03  0.000000e+00
   endloop
 endfacet
 facet normal  0.000000e+00  0.000000e+00  1.000000e+00
   outer loop
     vertex  2.205882e-01  1.500000e-03  0.000000e+00
     vertex  2.058824e-01  1.500000e-03  0.000000e+00
     vertex  2.058824e-01 -1.500000e-03  0.000000e+00
   endloop
 endfacet
 facet normal  0.000000e+00  0.000000e+00  1.000000e+00
   outer loop
     vertex  1.911765e-01 -1.500000e-03  0.000000e+00
     vertex  2.058824e-01 -1.500000e-03  0.000000e+00
     vertex  2.058824e-01  1.500000e-03  0.000000e+00
   endloop
 endfacet
 facet normal  0.000000e+00  0.000000e+00  1.000000e+00
   outer loop
     vertex  2.058824e-01 -1.500000e-03  0.000000e+00
     vertex  2.205882e-01 -1.500000e-03  0.000000e+00
     vertex  2.205882e-01  1.500000e-03  0.000000e+00
   endloop
 endfacet
 facet normal  0.000000e+00  0.000000e+00  1.000000e+00
   outer loop
     vertex  2.352941e-01  1.500000e-03  0.000000e+00
     vertex  2.205882e-01  1.500000e-03  0.000000e+00
     vertex  2.205882e-01 -1.500000e-03  0.000000e+00
   endloop
 endfacet
 facet normal  0.000000e+00  0.000000e+00  1.000000e+00
   outer loop
     vertex  1.470588e-01 -1.500000e-03  0.000000e+00
     vertex  1.617647e-01 -1.500000e-03  0.000000e+00
     vertex  1.617647e-01  1.500000e-03  0.000000e+00
   endloop
 endfacet
 facet normal  0.000000e+00  0.000000e+00  1.000000e+00
   outer loop
     vertex  1.617647e-01 -1.500000e-03  0.000000e+00
     vertex  1.764706e-01 -1.500000e-03  0.000000e+00
     vertex  1.764706e-01  1.500000e-03  0.000000e+00
   endloop
 endfacet
 facet normal  0.000000e+00  0.000000e+00  1.000000e+00
   outer loop
     vertex  1.764706e-01  1.500000e-03  0.000000e+00
     vertex  1.617647e-01  1.500000e-03  0.000000e+00
     vertex  1.617647e-01 -1.500000e-03  0.000000e+00
   endloop
 endfacet
 facet normal  0.000000e+00  0.000000e+00  1.000000e+00
   outer loop
     vertex  1.176471e-01 -1.500000e-03  0.000000e+00
     vertex  1.323529e-01 -1.500000e-03  0.000000e+00
     vertex  1.323529e-01  1.500000e-03  0.000000e+00
   endloop
 endfacet
 facet normal  0.000000e+00  0.000000e+00  1.000000e+00
   outer loop
     vertex  1.323529e-01  1.500000e-03  0.000000e+00
     vertex  1.176471e-01  1.500000e-03  0.000000e+00
     vertex  1.176471e-01 -1.500000e-03  0.000000e+00
   endloop
 endfacet
 facet normal  0.000000e+00  0.000000e+00  1.000000e+00
   outer loop
     vertex  1.323529e-01 -1.500000e-03  0.000000e+00
     vertex  1.470588e-01 -1.500000e-03  0.000000e+00
     vertex  1.470588e-01  1.500000e-03  0.000000e+00
   endloop
 endfacet
 facet normal  0.000000e+00  0.000000e+00  1.000000e+00
   outer loop
     vertex  1.470588e-01  1.500000e-03  0.000000e+00
     vertex  1.323529e-01  1.500000e-03  0.000000e+00
     vertex  1.323529e-01 -1.500000e-03  0.000000e+00
   endloop
 endfacet
 facet normal  0.000000e+00  0.000000e+00  1.000000e+00
   outer loop
     vertex  1.617647e-01  1.500000e-03  0.000000e+00
     vertex  1.470588e-01  1.500000e-03  0.000000e+00
     vertex  1.470588e-01 -1.500000e-03  0.000000e+00
   endloop
 endfacet
 facet normal  0.000000e+00  0.000000e+00  1.000000e+00
   outer loop
     vertex  1.911765e-01  1.500000e-03  0.000000e+00
     vertex  1.764706e-01  1.500000e-03  0.000000e+00
     vertex  1.764706e-01 -1.500000e-03  0.000000e+00
   endloop
 endfacet
 facet normal  0.000000e+00  0.000000e+00  1.000000e+00
   outer loop
     vertex  1.764706e-01 -1.500000e-03  0.000000e+00
     vertex  1.911765e-01 -1.500000e-03  0.000000e+00
     vertex  1.911765e-01  1.500000e-03  0.000000e+00
   endloop
 endfacet
 facet normal  0.000000e+00  0.000000e+00  1.000000e+00
   outer loop
     vertex  1.176471e-01  1.500000e-03  0.000000e+00
     vertex  1.029412e-01  1.500000e-03  0.000000e+00
     vertex  1.029412e-01 -1.500000e-03  0.000000e+00
   endloop
 endfacet
 facet normal  0.000000e+00  0.000000e+00  1.000000e+00
   outer loop
     vertex  8.823529e-02 -1.500000e-03  0.000000e+00
     vertex  1.029412e-01 -1.500000e-03  0.000000e+00
     vertex  1.029412e-01  1.500000e-03  0.000000e+00
   endloop
 endfacet
 facet normal  0.000000e+00  0.000000e+00  1.000000e+00
   outer loop
     vertex  1.029412e-01 -1.500000e-03  0.000000e+00
     vertex  1.176471e-01 -1.500000e-03  0.000000e+00
     vertex  1.176471e-01  1.500000e-03  0.000000e+00
   endloop
 endfacet
 facet normal  0.000000e+00  0.000000e+00  1.000000e+00
   outer loop
     vertex  4.411765e-02 -1.500000e-03  0.000000e+00
     vertex  5.882353e-02 -1.500000e-03  0.000000e+00
     vertex  5.882353e-02  1.500000e-03  0.000000e+00
   endloop
 endfacet
 facet normal  0.000000e+00  0.000000e+00  1.000000e+00
   outer loop
     vertex  5.882353e-02 -1.500000e-03  0.000000e+00
     vertex  7.352941e-02 -1.500000e-03  0.000000e+00
     vertex  7.352941e-02  1.500000e-03  0.000000e+00
   endloop
 endfacet
 facet normal  0.000000e+00  0.000000e+00  1.000000e+00
   outer loop
     vertex  7.352941e-02  1.500000e-03  0.000000e+00
     vertex  5.882353e-02  1.500000e-03  0.000000e+00
     vertex  5.882353e-02 -1.500000e-03  0.000000e+00
   endloop
 endfacet
 facet normal  0.000000e+00  0.000000e+00  1.000000e+00
   outer loop
     vertex  8.823529e-02  1.500000e-03  0.000000e+00
     vertex  7.352941e-02  1.500000e-03  0.000000e+00
     vertex  7.352941e-02 -1.500000e-03  0.000000e+00
   endloop
 endfacet
 facet normal  0.000000e+00  0.000000e+00  1.000000e+00
   outer loop
     vertex  7.352941e-02 -1.500000e-03  0.000000e+00
     vertex  8.823529e-02 -1.500000e-03  0.000000e+00
     vertex  8.823529e-02  1.500000e-03  0.000000e+00
   endloop
 endfacet
 facet normal  0.000000e+00  0.000000e+00  1.000000e+00
   outer loop
     vertex  1.470588e-02 -1.500000e-03  0.000000e+00
     vertex  2.941176e-02 -1.500000e-03  0.000000e+00
     vertex  2.941176e-02  1.500000e-03  0.000000e+00
   endloop
 endfacet
 facet normal  0.000000e+00  0.000000e+00  1.000000e+00
   outer loop
     vertex  2.941176e-02  1.500000e-03  0.000000e+00
     vertex  1.470588e-02  1.500000e-03  0.000000e+00
     vertex  1.470588e-02 -1.500000e-03  0.000000e+00
   endloop
 endfacet
 facet normal  0.000000e+00  0.000000e+00  1.000000e+00
   outer loop
     vertex  2.941176e-02 -1.500000e-03  0.000000e+00
     vertex  4.411765e-02 -1.500000e-03  0.000000e+00
     vertex  4.411765e-02  1.500000e-03  0.000000e+00
   endloop
 endfacet
 facet normal  0.000000e+00  0.000000e+00  1.000000e+00
   outer loop
     vertex  4.411765e-02  1.500000e-03  0.000000e+00
     vertex  2.941176e-02  1.500000e-03  0.000000e+00
     vertex  2.941176e-02 -1.500000e-03  0.000000e+00
   endloop
 endfacet
 facet normal  0.000000e+00  0.000000e+00  1.000000e+00
   outer loop
     vertex  0.000000e+00 -1.500000e-03  0.000000e+00
     vertex  1.470588e-02 -1.500000e-03  0.000000e+00
     vertex  0.000000e+00  1.500000e-03  0.000000e+00
   endloop
 endfacet
 facet normal  0.000000e+00  0.000000e+00  1.000000e+00
   outer loop
     vertex  1.470588e-02  1.500000e-03  0.000000e+00
     vertex  0.000000e+00  1.500000e-03  0.000000e+00
     vertex  1.470588e-02 -1.500000e-03  0.000000e+00
   endloop
 endfacet
 facet normal  0.000000e+00  0.000000e+00  1.000000e+00
   outer loop
     vertex  5.882353e-02  1.500000e-03  0.000000e+00
     vertex  4.411765e-02  1.500000e-03  0.000000e+00
     vertex  4.411765e-02 -1.500000e-03  0.000000e+00
   endloop
 endfacet
 facet normal  0.000000e+00  0.000000e+00  1.000000e+00
   outer loop
     vertex  8.823529e-02 -1.500000e-03  0.000000e+00
     vertex  1.029412e-01  1.500000e-03  0.000000e+00
     vertex  8.823529e-02  1.500000e-03  0.000000e+00
   endloop
 endfacet
 facet normal  0.000000e+00  0.000000e+00  1.000000e+00
   outer loop
     vertex  2.500000e-01  1.500000e-03  0.000000e+00
     vertex  2.500000e-01 -1.500000e-03  0.000000e+00
     vertex  2.647059e-01 -1.500000e-03  0.000000e+00
   endloop
 endfacet
endsolid
